<svg id="svg" version="1.1" xmlns="http://www.w3.org/2000/svg" xmlns:xlink="http://www.w3.org/1999/xlink" width="400"
    height="338.9121338912134" viewBox="0, 0, 400,338.9121338912134">
    <g id="svgg">
        <path id="path0"
            d="M168.983 7.307 C 168.797 7.381,167.576 7.588,166.271 7.767 C 162.718 8.255,161.007 8.731,158.127 10.029 C 151.265 13.124,148.482 19.356,151.708 24.407 C 152.757 26.049,156.371 29.153,157.234 29.153 C 157.416 29.153,158.303 29.515,159.206 29.958 C 160.109 30.401,161.458 30.919,162.203 31.108 C 168.244 32.642,169.903 32.791,174.407 32.202 C 179.132 31.585,179.842 31.469,180.508 31.207 C 180.881 31.061,181.797 30.749,182.542 30.514 C 189.874 28.201,194.172 22.911,192.652 18.071 C 191.354 13.938,185.919 9.859,179.492 8.197 C 176.404 7.398,170.099 6.864,168.983 7.307 M178.874 11.186 C 179.493 11.373,180.572 11.696,181.271 11.906 C 190.645 14.708,192.790 22.298,185.146 25.617 C 184.460 25.915,183.654 26.286,183.355 26.441 C 180.763 27.787,170.468 28.503,167.862 27.518 C 167.360 27.328,166.034 26.907,164.915 26.581 C 159.198 24.918,156.301 21.691,157.131 17.911 C 157.415 16.618,160.664 13.220,161.616 13.220 C 161.970 13.220,162.369 13.112,162.501 12.979 C 163.003 12.477,165.979 11.525,167.119 11.502 C 167.771 11.489,168.610 11.347,168.983 11.186 C 169.936 10.777,177.515 10.777,178.874 11.186 M146.949 40.705 C 141.995 41.063,130.887 41.726,124.576 42.040 C 118.235 42.356,111.393 42.991,109.831 43.408 C 109.178 43.582,107.469 43.726,106.034 43.727 C 104.598 43.728,102.691 43.866,101.796 44.034 C 100.902 44.202,97.729 44.591,94.746 44.899 C 91.763 45.206,88.586 45.602,87.686 45.779 C 86.786 45.957,85.294 46.102,84.370 46.102 C 82.216 46.102,80.267 46.876,80.552 47.619 C 80.964 48.691,85.829 58.144,86.131 58.458 C 86.301 58.635,86.441 59.042,86.441 59.362 C 86.441 59.682,86.559 59.994,86.704 60.056 C 86.848 60.119,87.512 61.237,88.179 62.542 C 93.354 72.669,93.606 72.952,96.241 71.541 C 96.803 71.241,99.238 70.832,104.276 70.191 C 105.416 70.046,106.495 69.837,106.674 69.726 C 107.053 69.492,111.266 68.855,114.915 68.480 C 116.314 68.337,118.525 67.952,119.831 67.624 C 121.136 67.297,123.195 66.914,124.407 66.773 C 125.619 66.632,128.059 66.349,129.831 66.144 C 131.602 65.939,133.432 65.677,133.898 65.561 C 134.804 65.335,138.031 64.988,144.576 64.413 C 146.814 64.216,148.937 63.963,149.294 63.851 C 149.652 63.739,152.016 63.515,154.548 63.354 C 157.081 63.193,161.396 62.918,164.139 62.744 C 166.882 62.570,169.444 62.326,169.833 62.203 C 176.515 60.082,251.321 60.200,263.559 62.351 C 265.509 62.693,271.864 62.862,271.864 62.572 C 271.864 62.405,269.966 58.761,269.386 57.816 C 269.165 57.454,268.487 56.356,267.881 55.375 C 267.275 54.394,266.780 53.501,266.780 53.390 C 266.780 53.217,266.051 51.983,264.165 48.963 C 263.939 48.601,263.429 47.682,263.032 46.921 C 262.000 44.944,261.132 44.689,252.203 43.740 C 238.049 42.235,237.657 42.206,220.678 41.397 C 216.483 41.197,210.839 40.876,208.136 40.683 C 202.443 40.279,152.600 40.296,146.949 40.705 M209.831 42.029 C 216.021 42.459,225.338 43.065,230.847 43.395 C 236.334 43.724,243.080 44.364,243.729 44.617 C 244.008 44.726,245.610 44.950,247.288 45.116 C 252.508 45.631,255.296 46.054,255.707 46.393 C 255.924 46.573,256.559 46.771,257.119 46.834 C 258.658 47.008,258.161 47.633,256.520 47.587 C 254.300 47.526,246.007 46.850,241.864 46.393 C 236.930 45.849,192.718 45.889,187.910 46.441 C 186.077 46.652,182.212 46.967,179.322 47.142 C 169.049 47.762,164.904 48.071,164.068 48.280 C 163.301 48.471,160.512 48.721,150.847 49.465 C 147.010 49.761,141.577 50.396,138.963 50.855 C 137.926 51.037,136.401 51.187,135.573 51.188 C 134.745 51.189,133.534 51.334,132.881 51.510 C 132.229 51.686,130.322 52.003,128.644 52.213 C 123.722 52.832,121.719 53.124,118.305 53.722 C 116.534 54.032,114.169 54.413,113.051 54.568 C 111.932 54.724,109.568 55.111,107.797 55.428 C 106.025 55.745,103.661 56.128,102.542 56.280 C 101.424 56.431,99.822 56.713,98.983 56.907 C 95.233 57.772,94.562 57.446,91.397 53.220 C 90.629 52.195,89.727 51.054,89.394 50.685 C 89.060 50.316,88.698 49.656,88.588 49.219 C 88.214 47.731,88.160 47.745,97.882 46.813 C 99.794 46.629,101.498 46.393,101.669 46.287 C 101.965 46.105,106.586 45.736,116.441 45.110 C 118.864 44.956,121.229 44.734,121.695 44.616 C 122.635 44.380,130.249 43.848,139.322 43.384 C 142.585 43.218,147.466 42.925,150.169 42.734 C 152.873 42.544,157.602 42.364,160.678 42.336 C 163.754 42.307,167.415 42.176,168.814 42.044 C 172.843 41.664,204.405 41.653,209.831 42.029 M197.119 69.869 C 185.229 70.214,172.820 70.788,171.780 71.040 C 170.859 71.263,170.481 72.276,171.160 72.696 C 171.332 72.802,171.581 73.378,171.712 73.976 C 171.843 74.573,172.068 75.296,172.212 75.582 C 172.355 75.868,172.733 76.788,173.051 77.627 C 173.369 78.466,173.766 79.417,173.933 79.741 C 174.100 80.065,174.237 80.543,174.237 80.804 C 174.237 81.065,174.465 81.715,174.744 82.249 C 175.022 82.783,175.251 83.478,175.252 83.794 C 175.253 84.109,175.407 84.461,175.593 84.576 C 175.780 84.691,175.932 85.084,175.932 85.448 C 175.932 85.813,176.066 86.376,176.230 86.700 C 176.952 88.128,177.627 89.894,177.627 90.355 C 177.627 90.631,177.761 91.122,177.925 91.445 C 178.697 92.973,179.322 94.656,179.322 95.209 C 179.322 95.545,179.427 95.924,179.554 96.052 C 179.789 96.286,180.178 97.285,181.356 100.678 C 182.534 104.070,182.923 105.070,183.158 105.304 C 183.285 105.432,183.390 105.862,183.390 106.260 C 183.390 106.658,183.523 107.128,183.685 107.305 C 183.848 107.482,184.298 108.619,184.685 109.831 C 185.667 112.903,186.275 114.524,186.547 114.796 C 186.675 114.924,186.780 115.284,186.780 115.598 C 186.780 116.119,187.366 117.595,188.157 119.063 C 188.332 119.387,188.475 119.950,188.475 120.314 C 188.475 120.679,188.627 121.071,188.814 121.186 C 189.000 121.302,189.153 121.654,189.155 121.969 C 189.156 122.284,189.385 122.979,189.663 123.513 C 189.942 124.047,190.169 124.763,190.169 125.103 C 190.169 125.444,190.304 125.806,190.469 125.908 C 190.634 126.010,190.846 126.515,190.939 127.030 C 191.033 127.545,191.302 128.500,191.537 129.153 C 192.819 132.703,193.559 135.109,193.559 135.728 C 193.559 136.032,193.693 136.545,193.856 136.869 C 194.019 137.193,194.411 138.373,194.727 139.492 C 195.043 140.610,195.443 141.994,195.617 142.566 C 195.790 143.139,195.932 143.950,195.932 144.368 C 195.932 144.787,196.096 145.435,196.295 145.808 C 196.495 146.181,196.809 147.276,196.993 148.243 C 197.328 150.000,197.488 150.871,198.470 156.271 C 200.372 166.730,200.055 185.433,197.940 187.610 C 197.768 187.787,197.627 188.285,197.627 188.716 C 197.627 189.148,197.490 189.766,197.323 190.089 C 197.156 190.413,196.742 191.364,196.404 192.203 C 196.067 193.042,195.441 194.298,195.014 194.993 C 194.587 195.689,194.237 196.413,194.237 196.603 C 194.237 196.794,194.085 196.949,193.898 196.949 C 193.712 196.949,193.559 197.108,193.559 197.303 C 193.559 198.757,188.373 204.237,184.228 207.162 C 180.711 209.645,174.376 212.881,173.035 212.881 C 172.759 212.881,172.268 213.019,171.945 213.187 C 171.621 213.354,170.441 213.755,169.322 214.076 C 168.203 214.398,166.983 214.829,166.610 215.034 C 164.673 216.103,118.403 215.167,111.675 213.923 C 110.592 213.723,108.745 213.559,107.571 213.559 C 106.397 213.559,104.404 213.411,103.142 213.230 C 101.880 213.049,99.475 212.726,97.797 212.512 C 89.747 211.485,83.821 210.501,81.501 209.804 C 80.929 209.632,80.152 209.492,79.776 209.492 C 79.399 209.492,77.885 209.171,76.410 208.779 C 74.935 208.387,73.195 207.946,72.542 207.799 C 71.890 207.653,70.898 207.381,70.339 207.196 C 69.780 207.010,68.712 206.699,67.966 206.504 C 64.521 205.602,62.516 204.973,62.220 204.702 C 62.043 204.540,61.556 204.407,61.139 204.407 C 60.721 204.407,60.285 204.254,60.169 204.068 C 60.054 203.881,59.725 203.729,59.438 203.729 C 59.151 203.729,58.435 203.520,57.848 203.265 C 57.260 203.010,55.712 202.385,54.407 201.875 C 50.297 200.270,40.209 195.152,38.956 194.036 C 38.662 193.774,38.312 193.559,38.179 193.559 C 37.951 193.559,34.262 190.949,33.898 190.530 C 33.805 190.423,33.119 189.886,32.373 189.338 C 31.627 188.790,30.941 188.253,30.847 188.145 C 30.754 188.037,30.038 187.450,29.255 186.841 C 28.473 186.233,27.138 184.787,26.288 183.630 C 25.439 182.472,24.630 181.372,24.490 181.185 C 23.884 180.368,22.709 177.993,22.142 176.435 C 21.380 174.346,21.234 163.716,21.957 162.992 C 22.186 162.763,22.373 162.208,22.373 161.757 C 22.373 161.039,22.977 158.853,23.748 156.780 C 25.755 151.383,25.203 150.570,22.251 154.576 C 21.496 155.602,20.604 156.736,20.269 157.098 C 19.935 157.459,19.661 157.868,19.661 158.006 C 19.661 158.144,19.461 158.458,19.215 158.705 C 17.849 160.078,12.733 169.183,11.535 172.373 C 11.395 172.746,11.030 173.628,10.725 174.334 C 10.419 175.039,10.169 175.886,10.169 176.215 C 10.169 176.544,10.042 176.958,9.885 177.136 C 9.593 177.467,8.809 181.069,8.118 185.254 C 7.329 190.033,8.195 198.249,9.976 202.881 C 11.191 206.040,12.049 208.047,12.367 208.475 C 12.575 208.754,13.043 209.565,13.407 210.277 C 13.770 210.989,14.309 211.832,14.603 212.150 C 14.898 212.469,15.431 213.183,15.788 213.738 C 18.159 217.419,25.325 224.183,31.856 228.907 C 34.191 230.596,36.178 232.066,36.271 232.175 C 36.364 232.284,36.746 232.559,37.119 232.786 C 37.492 233.013,39.394 234.218,41.347 235.464 C 47.734 239.540,59.918 245.731,66.610 248.302 C 67.915 248.803,69.441 249.407,70.000 249.644 C 71.986 250.485,72.734 250.762,74.576 251.338 C 75.602 251.659,76.746 252.044,77.119 252.193 C 77.492 252.342,78.712 252.729,79.831 253.054 C 80.949 253.378,82.129 253.777,82.453 253.940 C 82.777 254.104,83.290 254.237,83.594 254.237 C 84.100 254.237,86.665 254.990,88.305 255.621 C 88.678 255.764,89.364 255.954,89.831 256.043 C 90.297 256.132,91.517 256.457,92.542 256.767 C 93.568 257.076,95.017 257.460,95.763 257.621 C 96.508 257.782,98.110 258.160,99.322 258.462 C 100.534 258.764,102.136 259.145,102.881 259.308 C 103.627 259.472,105.305 259.862,106.610 260.175 C 109.728 260.924,111.604 261.312,114.015 261.708 C 115.104 261.887,116.149 262.128,116.337 262.244 C 116.524 262.360,117.578 262.589,118.678 262.753 C 119.778 262.917,121.578 263.185,122.678 263.349 C 123.778 263.513,124.846 263.751,125.052 263.878 C 125.258 264.005,126.532 264.258,127.883 264.440 C 134.170 265.286,137.891 265.953,139.253 266.479 C 139.682 266.644,140.598 266.780,141.289 266.780 C 141.981 266.780,143.080 266.935,143.731 267.126 C 144.915 267.472,147.675 267.969,151.186 268.468 C 152.212 268.614,154.195 268.990,155.593 269.304 C 156.992 269.618,158.746 270.006,159.492 270.166 C 161.282 270.551,163.616 271.107,165.085 271.498 C 165.737 271.672,167.186 271.994,168.305 272.215 C 170.450 272.638,171.763 273.011,175.989 274.400 C 177.419 274.870,178.881 275.254,179.238 275.254 C 179.595 275.254,179.986 275.353,180.106 275.474 C 180.433 275.800,183.806 276.925,184.496 276.938 C 184.825 276.944,185.359 277.083,185.683 277.247 C 186.006 277.411,187.110 277.805,188.136 278.123 C 189.161 278.441,190.305 278.823,190.678 278.971 C 191.051 279.120,192.042 279.504,192.881 279.825 C 193.720 280.146,194.672 280.545,194.995 280.713 C 195.319 280.880,195.739 281.017,195.929 281.017 C 196.119 281.017,197.065 281.398,198.031 281.864 C 198.997 282.331,199.908 282.712,200.054 282.712 C 200.549 282.712,211.452 287.721,211.864 288.137 C 211.958 288.232,213.025 288.815,214.237 289.435 C 217.768 291.239,220.657 292.847,222.606 294.094 C 223.604 294.732,224.493 295.254,224.582 295.254 C 225.199 295.254,238.756 305.493,242.373 308.690 C 246.995 312.776,256.714 322.871,259.661 326.647 C 259.941 327.005,261.006 328.337,262.029 329.607 L 263.888 331.915 264.461 330.618 C 264.777 329.905,265.046 329.053,265.060 328.724 C 265.073 328.395,265.227 327.862,265.402 327.538 C 265.576 327.214,266.128 325.729,266.627 324.237 C 267.126 322.746,267.762 320.992,268.039 320.339 C 268.317 319.686,268.695 318.771,268.879 318.305 C 269.064 317.839,269.430 317.026,269.692 316.498 C 269.955 315.970,270.169 315.322,270.169 315.057 C 270.169 314.793,270.322 314.576,270.508 314.576 C 270.695 314.576,270.847 314.382,270.847 314.144 C 270.847 313.545,274.882 305.635,276.389 303.278 C 277.070 302.213,277.627 301.259,277.627 301.157 C 277.627 301.055,278.008 300.472,278.475 299.861 C 278.941 299.250,279.322 298.643,279.322 298.513 C 279.322 298.383,279.482 298.092,279.676 297.867 C 279.871 297.642,280.367 296.981,280.778 296.399 C 281.898 294.811,284.500 291.380,284.731 291.186 C 284.842 291.093,285.460 290.331,286.105 289.492 C 289.093 285.604,297.293 277.392,301.674 273.898 C 302.493 273.246,303.328 272.551,303.530 272.353 C 305.140 270.786,322.165 259.322,322.884 259.322 C 322.994 259.322,323.883 258.811,324.860 258.186 C 326.376 257.215,328.318 256.095,331.356 254.438 C 331.729 254.234,332.110 253.989,332.203 253.893 C 332.297 253.797,333.019 253.416,333.810 253.046 C 334.600 252.676,335.248 252.258,335.250 252.119 C 335.252 251.979,335.409 251.864,335.599 251.864 C 335.789 251.864,337.174 251.102,338.677 250.169 C 340.180 249.237,341.476 248.475,341.558 248.475 C 341.640 248.475,342.937 247.712,344.440 246.780 C 345.943 245.847,347.258 245.085,347.364 245.085 C 347.661 245.085,354.392 240.541,354.520 240.254 C 354.582 240.114,354.836 240.000,355.085 240.000 C 355.333 240.000,355.588 239.879,355.650 239.732 C 355.712 239.584,356.373 239.015,357.119 238.466 C 358.614 237.366,361.190 235.300,363.025 233.729 C 365.104 231.949,373.350 223.604,374.407 222.212 C 374.966 221.475,375.816 220.409,376.296 219.843 C 377.608 218.296,381.356 212.916,381.356 212.580 C 381.356 212.419,381.572 212.107,381.835 211.889 C 382.288 211.512,385.699 204.794,386.924 201.864 C 387.235 201.119,387.636 200.244,387.813 199.920 C 387.990 199.596,388.136 199.050,388.136 198.705 C 388.136 198.361,388.245 197.970,388.378 197.837 C 389.155 197.060,390.430 190.765,391.054 184.628 C 391.306 182.149,390.597 173.654,390.113 173.355 C 389.958 173.259,389.806 172.617,389.776 171.929 C 389.747 171.241,389.619 172.814,389.493 175.424 C 389.367 178.034,389.065 180.780,388.822 181.525 C 388.579 182.271,388.226 183.339,388.038 183.898 C 386.703 187.869,381.768 193.284,377.198 195.794 C 373.890 197.611,366.693 201.017,366.161 201.017 C 365.985 201.017,365.403 201.245,364.869 201.523 C 364.335 201.802,363.662 202.031,363.373 202.032 C 363.084 202.033,362.683 202.198,362.482 202.399 C 362.027 202.854,360.266 202.678,360.097 202.161 C 360.028 201.951,361.008 200.981,362.274 200.006 C 368.236 195.413,374.015 188.476,376.963 182.373 C 378.089 180.043,379.170 176.874,380.153 173.029 C 380.873 170.208,380.884 160.256,380.169 157.512 C 379.890 156.439,379.661 155.280,379.661 154.937 C 379.661 153.082,377.218 150.191,371.762 145.589 C 370.479 144.507,366.768 141.695,366.623 141.695 C 366.529 141.695,365.267 140.842,363.819 139.800 C 362.371 138.757,360.595 137.600,359.871 137.228 L 358.556 136.551 360.423 139.208 C 362.574 142.269,365.085 146.782,365.085 147.586 C 365.085 147.888,365.237 148.136,365.424 148.136 C 365.610 148.136,365.763 148.359,365.763 148.633 C 365.763 149.090,366.440 150.859,367.160 152.284 C 367.324 152.607,367.458 153.121,367.458 153.424 C 367.458 153.728,367.679 154.684,367.949 155.548 C 370.719 164.398,370.872 172.611,368.398 179.661 C 368.038 180.686,367.655 181.831,367.546 182.203 C 366.491 185.834,358.620 194.239,354.576 196.052 C 354.297 196.178,353.305 196.741,352.373 197.304 C 351.441 197.866,350.449 198.412,350.169 198.516 C 349.504 198.764,348.611 199.125,346.949 199.819 C 346.203 200.130,345.288 200.508,344.915 200.659 C 344.542 200.809,343.780 201.124,343.220 201.358 C 342.246 201.765,341.229 202.067,338.644 202.716 C 337.992 202.880,336.542 203.264,335.424 203.569 C 334.305 203.875,332.780 204.255,332.034 204.414 C 331.288 204.573,329.686 204.946,328.475 205.244 C 326.369 205.762,325.600 205.902,320.169 206.754 C 318.864 206.959,317.568 207.215,317.288 207.324 C 317.008 207.433,315.636 207.650,314.237 207.806 C 312.839 207.962,310.246 208.253,308.475 208.452 C 306.703 208.651,304.615 208.967,303.833 209.153 C 302.020 209.585,297.128 209.590,295.017 209.162 C 294.122 208.980,291.712 208.676,289.661 208.485 C 283.067 207.870,278.937 207.166,277.547 206.418 C 277.223 206.244,276.689 206.097,276.361 206.091 C 275.671 206.078,272.297 204.952,271.971 204.626 C 271.850 204.505,271.535 204.407,271.271 204.407 C 270.233 204.407,263.958 201.025,261.074 198.911 C 255.281 194.664,250.524 189.224,248.088 184.060 C 246.530 180.757,245.763 178.918,245.763 178.485 C 245.763 178.222,245.610 177.912,245.424 177.797 C 245.237 177.681,245.085 177.308,245.085 176.968 C 245.085 176.627,244.857 175.912,244.578 175.378 C 244.300 174.844,244.071 174.165,244.070 173.870 C 244.069 173.575,243.963 173.229,243.835 173.101 C 243.578 172.844,243.190 171.802,241.666 167.288 C 241.100 165.610,240.514 163.932,240.365 163.559 C 239.761 162.051,238.551 158.422,238.388 157.627 C 238.292 157.161,238.104 156.627,237.970 156.441 C 237.835 156.254,237.225 154.653,236.613 152.881 C 236.001 151.110,235.369 149.516,235.208 149.339 C 235.047 149.162,234.915 148.740,234.915 148.402 C 234.915 148.064,234.781 147.523,234.618 147.199 C 233.895 145.770,233.220 144.004,233.220 143.543 C 233.220 143.267,233.086 142.777,232.923 142.453 C 232.136 140.896,231.525 139.237,231.525 138.653 C 231.525 138.297,231.373 137.912,231.186 137.797 C 231.000 137.681,230.847 137.224,230.847 136.780 C 230.847 136.336,230.707 135.885,230.535 135.779 C 230.362 135.672,230.114 135.096,229.983 134.499 C 229.852 133.901,229.621 133.178,229.469 132.892 C 229.024 132.049,227.458 127.646,227.458 127.235 C 227.458 127.027,227.230 126.420,226.951 125.886 C 226.673 125.352,226.444 124.657,226.443 124.342 C 226.442 124.027,226.288 123.675,226.102 123.559 C 225.915 123.444,225.763 123.008,225.763 122.590 C 225.763 122.172,225.635 121.686,225.480 121.508 C 225.324 121.331,224.931 120.424,224.606 119.492 C 224.281 118.559,223.891 117.492,223.738 117.119 C 223.586 116.746,223.205 115.678,222.891 114.746 C 222.233 112.793,221.999 112.180,221.233 110.412 C 220.928 109.707,220.678 108.860,220.678 108.531 C 220.678 108.202,220.551 107.787,220.395 107.610 C 220.239 107.433,219.846 106.525,219.521 105.593 C 218.925 103.883,218.733 103.378,217.972 101.525 C 217.742 100.966,217.272 99.669,216.928 98.644 C 215.895 95.569,215.393 94.263,215.148 94.018 C 215.020 93.890,214.915 93.523,214.915 93.203 C 214.915 92.882,214.687 92.183,214.409 91.649 C 214.130 91.115,213.902 90.420,213.900 90.105 C 213.899 89.789,213.746 89.437,213.559 89.322 C 213.373 89.207,213.220 88.840,213.220 88.507 C 213.220 87.953,212.649 86.501,211.843 85.005 C 211.668 84.681,211.525 84.209,211.525 83.955 C 211.525 83.526,210.886 81.968,210.148 80.598 C 209.973 80.274,209.831 79.776,209.831 79.492 C 209.831 79.207,209.694 78.709,209.526 78.385 C 209.359 78.061,208.962 77.110,208.644 76.271 C 208.326 75.432,207.929 74.481,207.762 74.157 C 207.595 73.833,207.453 73.300,207.447 72.971 C 207.441 72.642,207.212 72.077,206.938 71.715 C 206.665 71.353,206.441 70.781,206.441 70.444 C 206.441 70.106,206.301 69.831,206.129 69.831 C 205.958 69.831,205.615 69.788,205.367 69.737 C 205.118 69.685,201.407 69.745,197.119 69.869 M197.505 87.712 C 197.613 88.038,198.054 89.068,198.485 90.000 C 200.501 94.360,201.017 95.585,201.017 96.013 C 201.017 96.267,201.145 96.619,201.301 96.797 C 201.456 96.974,201.933 97.958,202.360 98.983 C 202.786 100.008,203.436 101.534,203.805 102.373 C 204.173 103.212,204.628 104.280,204.815 104.746 C 205.748 107.066,207.724 111.683,208.185 112.623 C 208.344 112.946,208.475 113.366,208.475 113.556 C 208.475 113.746,208.856 114.692,209.322 115.658 C 209.788 116.625,210.169 117.593,210.169 117.810 C 210.169 118.027,210.551 118.921,211.017 119.798 C 211.483 120.675,211.864 121.532,211.864 121.704 C 211.864 121.875,212.229 122.820,212.674 123.804 C 213.119 124.788,213.900 126.661,214.408 127.966 C 215.415 130.549,215.604 131.019,216.452 133.051 C 218.000 136.759,218.435 137.831,219.479 140.508 C 219.988 141.814,220.535 143.186,220.694 143.559 C 220.853 143.932,221.612 145.839,222.382 147.797 C 223.151 149.754,223.906 151.661,224.059 152.034 C 225.212 154.841,225.495 155.493,225.779 156.012 C 225.957 156.336,226.102 156.756,226.102 156.946 C 226.102 157.136,226.483 158.082,226.949 159.048 C 227.415 160.014,227.797 161.007,227.797 161.254 C 227.797 161.502,227.939 161.969,228.114 162.293 C 228.812 163.589,229.492 165.211,229.492 165.582 C 229.492 165.798,229.873 166.765,230.339 167.732 C 230.805 168.698,231.186 169.644,231.186 169.833 C 231.186 170.185,231.318 170.495,232.316 172.485 C 232.627 173.106,232.881 173.833,232.881 174.100 C 232.881 174.367,233.027 174.850,233.204 175.174 C 233.631 175.953,234.414 177.845,236.114 182.203 C 236.623 183.508,237.225 185.034,237.452 185.593 C 237.679 186.153,238.058 187.144,238.294 187.797 C 238.530 188.449,238.912 189.441,239.141 190.000 C 239.371 190.559,239.753 191.551,239.989 192.203 C 240.225 192.856,240.607 193.847,240.836 194.407 C 241.066 194.966,241.448 195.958,241.684 196.610 C 241.920 197.263,242.301 198.254,242.531 198.814 C 242.761 199.373,243.140 200.364,243.373 201.017 C 243.606 201.669,243.916 202.508,244.061 202.881 C 244.507 204.024,245.490 206.572,245.763 207.288 C 245.905 207.661,246.286 208.653,246.610 209.492 C 246.934 210.331,247.313 211.322,247.451 211.695 C 247.590 212.068,247.953 212.950,248.258 213.656 C 248.564 214.361,248.814 215.213,248.814 215.548 C 248.814 215.884,248.918 216.263,249.046 216.391 C 249.311 216.655,249.958 218.374,250.724 220.847 C 251.013 221.780,251.377 222.791,251.534 223.094 C 251.690 223.397,251.922 224.200,252.049 224.877 C 252.176 225.555,252.415 226.193,252.581 226.295 C 252.746 226.397,252.881 226.920,252.881 227.458 C 252.881 227.995,253.021 228.521,253.191 228.626 C 253.361 228.731,253.603 229.426,253.729 230.169 C 253.854 230.913,254.097 231.608,254.267 231.713 C 254.437 231.818,254.576 232.404,254.576 233.014 C 254.576 233.625,254.691 234.239,254.830 234.378 C 255.060 234.608,255.675 236.760,256.146 238.983 C 256.245 239.449,256.416 240.059,256.527 240.339 C 256.882 241.240,257.663 244.536,257.852 245.932 C 257.953 246.678,258.172 247.433,258.340 247.610 C 258.507 247.787,258.644 248.349,258.644 248.859 C 258.644 249.369,258.807 250.215,259.006 250.739 C 259.205 251.262,259.515 252.683,259.695 253.896 C 259.875 255.109,260.151 256.964,260.309 258.017 C 260.467 259.070,260.704 260.108,260.837 260.322 C 261.059 260.681,261.263 262.208,262.017 269.153 C 262.169 270.551,262.475 273.144,262.697 274.915 C 263.238 279.240,263.254 298.063,262.718 301.186 C 262.495 302.492,262.234 304.479,262.138 305.603 C 261.772 309.911,260.133 309.980,259.893 305.698 C 259.465 298.043,259.014 291.982,258.837 291.525 C 258.729 291.246,258.481 289.110,258.286 286.780 C 257.641 279.065,257.369 276.446,257.158 275.932 C 257.044 275.653,256.786 274.051,256.585 272.373 C 255.990 267.397,255.698 265.422,255.082 262.203 C 254.761 260.525,254.373 258.314,254.221 257.288 C 254.068 256.263,253.695 254.280,253.392 252.881 C 253.089 251.483,252.709 249.576,252.549 248.644 C 252.388 247.712,252.016 245.958,251.721 244.746 C 251.426 243.534,251.043 241.932,250.871 241.186 C 250.699 240.441,250.304 238.915,249.994 237.797 C 249.684 236.678,249.352 235.190,249.256 234.489 C 249.159 233.789,248.944 233.132,248.778 233.029 C 248.611 232.926,248.475 232.507,248.476 232.099 C 248.478 231.454,247.952 229.589,247.120 227.288 C 246.985 226.915,246.607 225.695,246.279 224.576 C 245.952 223.458,245.565 222.237,245.420 221.864 C 245.275 221.492,244.900 220.424,244.586 219.492 C 244.272 218.559,243.887 217.492,243.731 217.119 C 243.574 216.746,243.369 216.136,243.275 215.763 C 243.034 214.808,241.728 211.223,241.157 209.949 C 240.893 209.361,240.678 208.646,240.678 208.359 C 240.678 208.072,240.525 207.742,240.339 207.627 C 240.153 207.512,240.000 207.076,240.000 206.658 C 240.000 206.240,239.869 205.753,239.708 205.576 C 239.548 205.399,239.143 204.415,238.809 203.390 C 238.475 202.364,238.019 201.068,237.796 200.508 C 237.573 199.949,237.199 198.958,236.966 198.305 C 236.331 196.529,236.081 195.889,235.471 194.480 C 235.165 193.775,234.915 192.897,234.915 192.531 C 234.915 192.164,234.763 191.864,234.576 191.864 C 234.390 191.864,234.237 191.564,234.237 191.198 C 234.237 190.831,233.987 189.954,233.682 189.249 C 232.916 187.481,232.682 186.868,232.024 184.915 C 231.711 183.983,231.329 182.915,231.177 182.542 C 231.025 182.169,230.643 181.102,230.329 180.169 C 230.016 179.237,229.641 178.169,229.496 177.797 C 229.352 177.424,228.971 176.432,228.650 175.593 C 228.329 174.754,227.929 173.803,227.762 173.479 C 227.595 173.155,227.458 172.658,227.458 172.373 C 227.458 172.088,227.312 171.590,227.135 171.267 C 226.669 170.417,225.956 168.581,225.258 166.441 C 224.924 165.415,224.520 164.431,224.359 164.254 C 224.199 164.077,224.068 163.612,224.068 163.220 C 224.068 162.829,223.937 162.364,223.776 162.186 C 223.616 162.009,223.214 161.025,222.882 160.000 C 222.146 157.721,221.753 156.712,221.145 155.541 C 220.888 155.046,220.678 154.426,220.678 154.164 C 220.678 153.901,220.297 152.896,219.831 151.930 C 219.364 150.963,218.983 149.941,218.983 149.658 C 218.983 149.375,218.846 148.878,218.679 148.555 C 218.512 148.231,218.115 147.280,217.797 146.441 C 217.479 145.602,217.082 144.650,216.914 144.327 C 216.747 144.003,216.610 143.512,216.610 143.236 C 216.610 142.775,215.935 141.010,215.213 139.581 C 215.049 139.257,214.915 138.694,214.915 138.330 C 214.915 137.965,214.774 137.580,214.602 137.474 C 214.430 137.367,214.182 136.791,214.051 136.194 C 213.920 135.596,213.688 134.873,213.537 134.587 C 213.386 134.302,212.859 132.924,212.367 131.525 C 211.874 130.127,211.349 128.678,211.200 128.305 C 210.468 126.475,209.801 124.688,208.987 122.373 C 208.496 120.975,207.950 119.566,207.776 119.242 C 207.601 118.918,207.458 118.484,207.458 118.276 C 207.458 118.069,207.213 117.342,206.915 116.661 C 206.616 115.981,206.254 115.119,206.109 114.746 C 205.965 114.373,205.659 113.610,205.429 113.051 C 205.200 112.492,204.730 111.195,204.386 110.169 C 203.353 107.094,202.850 105.788,202.605 105.543 C 202.477 105.415,202.373 105.049,202.373 104.728 C 202.373 104.408,202.145 103.708,201.866 103.174 C 201.588 102.640,201.359 101.945,201.358 101.630 C 201.357 101.315,201.203 100.963,201.017 100.847 C 200.831 100.732,200.678 100.296,200.678 99.878 C 200.678 99.460,200.547 98.974,200.386 98.797 C 200.226 98.619,199.821 97.636,199.487 96.610 C 199.153 95.585,198.692 94.288,198.462 93.729 C 198.232 93.169,197.855 92.102,197.625 91.356 C 197.394 90.610,197.071 89.735,196.908 89.411 C 196.499 88.603,196.533 87.119,196.960 87.119 C 197.152 87.119,197.398 87.386,197.505 87.712 M13.036 187.210 C 15.880 193.029,20.616 200.725,22.366 202.373 C 22.465 202.466,23.222 203.458,24.048 204.576 C 26.410 207.775,34.970 216.152,39.184 219.389 C 39.726 219.806,40.246 220.243,40.339 220.362 C 40.592 220.685,50.086 227.458,50.286 227.458 C 50.380 227.458,52.261 228.571,54.466 229.932 C 56.671 231.294,59.040 232.671,59.731 232.992 C 60.423 233.314,61.080 233.726,61.192 233.907 C 61.304 234.089,61.679 234.237,62.026 234.237 C 62.372 234.237,62.706 234.352,62.768 234.492 C 62.920 234.834,68.533 237.627,69.068 237.627 C 69.301 237.627,69.492 237.780,69.492 237.966 C 69.492 238.153,69.722 238.305,70.005 238.305 C 70.287 238.305,70.783 238.450,71.106 238.628 C 71.430 238.805,72.305 239.202,73.051 239.510 C 77.533 241.359,78.427 241.747,80.116 242.580 C 81.019 243.026,82.018 243.390,82.336 243.390 C 82.655 243.390,83.060 243.521,83.237 243.681 C 83.414 243.842,84.398 244.244,85.424 244.575 C 87.826 245.351,88.374 245.552,89.927 246.224 C 90.632 246.530,91.500 246.780,91.856 246.780 C 92.211 246.780,92.586 246.915,92.688 247.080 C 92.790 247.245,93.294 247.456,93.809 247.549 C 94.324 247.643,95.280 247.912,95.932 248.148 C 98.210 248.970,98.488 249.062,100.508 249.653 C 101.627 249.980,102.847 250.372,103.220 250.522 C 103.593 250.673,104.280 250.876,104.746 250.973 C 105.212 251.070,106.432 251.401,107.458 251.709 C 108.483 252.016,109.856 252.398,110.508 252.556 C 112.836 253.120,114.756 253.654,115.424 253.922 C 115.797 254.072,116.636 254.272,117.288 254.365 C 117.941 254.458,119.542 254.783,120.847 255.087 C 122.153 255.392,123.907 255.772,124.746 255.932 C 125.585 256.093,127.339 256.472,128.644 256.774 C 129.949 257.077,131.856 257.464,132.881 257.635 C 133.907 257.806,135.890 258.186,137.288 258.480 C 138.686 258.773,140.517 259.121,141.356 259.252 C 144.667 259.771,142.343 260.709,138.814 260.278 C 137.508 260.118,134.915 259.841,133.051 259.662 C 131.186 259.483,128.288 259.090,126.610 258.790 C 123.572 258.247,122.050 258.020,116.651 257.309 C 115.089 257.104,113.667 256.846,113.490 256.737 C 113.313 256.627,112.227 256.408,111.076 256.250 C 109.925 256.092,107.992 255.719,106.780 255.422 C 104.645 254.899,103.390 254.632,99.831 253.945 C 98.898 253.765,97.706 253.452,97.181 253.249 C 96.656 253.047,95.788 252.881,95.252 252.881 C 94.716 252.881,94.183 252.729,94.068 252.542 C 93.953 252.356,93.453 252.203,92.957 252.203 C 92.462 252.203,91.441 251.990,90.689 251.730 C 89.937 251.470,88.636 251.076,87.797 250.854 C 85.178 250.164,82.571 249.408,81.864 249.133 C 81.492 248.989,80.881 248.794,80.508 248.701 C 79.280 248.393,72.165 245.838,71.956 245.629 C 71.844 245.516,71.426 245.424,71.028 245.424 C 70.631 245.424,70.160 245.296,69.983 245.141 C 69.806 244.985,68.898 244.592,67.966 244.268 C 66.337 243.701,65.399 243.291,60.169 240.864 C 55.811 238.841,49.059 235.451,48.680 235.095 C 48.474 234.902,47.733 234.443,47.034 234.075 C 46.335 233.706,45.763 233.287,45.763 233.143 C 45.763 232.999,45.596 232.881,45.392 232.881 C 45.059 232.881,37.362 227.919,36.949 227.438 C 36.856 227.330,35.869 226.573,34.755 225.758 C 29.970 222.251,17.288 208.325,17.288 206.576 C 17.288 206.466,17.000 205.971,16.648 205.476 C 16.296 204.981,15.403 203.356,14.664 201.864 C 13.485 199.486,13.013 198.401,11.860 195.424 C 11.056 193.348,9.831 188.797,9.831 187.887 C 9.831 187.306,9.655 186.073,9.442 185.146 C 8.340 180.374,10.222 181.454,13.036 187.210 M323.143 281.311 C 322.541 282.189,321.773 283.206,321.436 283.572 C 321.099 283.938,320.600 284.557,320.327 284.948 C 319.437 286.223,313.459 292.918,311.154 295.222 C 308.329 298.047,305.086 300.678,304.429 300.678 C 303.691 300.678,304.110 301.587,305.593 303.202 C 306.432 304.116,307.119 304.978,307.119 305.119 C 307.119 305.260,307.326 305.583,307.580 305.837 C 308.088 306.345,311.525 311.748,311.525 312.038 C 311.525 312.138,312.172 313.246,312.962 314.500 C 318.640 323.514,323.746 325.170,325.737 318.644 C 327.382 313.250,327.381 299.984,325.735 296.869 C 325.564 296.545,325.424 296.116,325.424 295.914 C 325.424 295.713,325.004 294.997,324.492 294.323 C 323.438 292.940,323.170 285.069,324.068 281.865 C 324.676 279.693,324.376 279.514,323.143 281.311 M140.339 296.028 C 148.497 304.098,150.179 307.260,146.938 308.433 C 143.130 309.809,143.107 314.199,146.868 322.018 C 148.727 325.883,153.434 331.847,154.637 331.862 C 154.763 331.863,155.068 332.060,155.315 332.298 C 158.917 335.788,168.638 337.133,175.300 335.064 C 176.164 334.796,177.092 334.576,177.362 334.576 C 178.050 334.576,184.023 331.470,186.731 329.704 C 189.491 327.904,191.142 326.493,195.101 322.548 C 201.339 316.333,205.711 312.804,208.118 312.039 L 208.931 311.782 208.109 311.326 C 207.658 311.076,206.359 310.866,205.223 310.859 C 204.088 310.853,202.410 310.620,201.495 310.343 C 200.579 310.065,199.460 309.836,199.007 309.834 C 198.554 309.832,197.715 309.690,197.143 309.519 C 196.164 309.226,194.032 308.776,190.508 308.117 C 186.485 307.364,185.524 307.150,184.639 306.809 C 184.114 306.606,183.246 306.441,182.710 306.441 C 182.174 306.441,181.653 306.309,181.554 306.147 C 181.454 305.986,180.797 305.761,180.093 305.648 C 179.389 305.534,177.975 305.194,176.949 304.892 C 175.924 304.589,174.551 304.223,173.898 304.077 C 171.210 303.477,169.288 302.953,168.733 302.672 C 168.410 302.507,167.834 302.373,167.453 302.373 C 167.073 302.373,165.507 301.976,163.974 301.492 C 162.441 301.007,160.347 300.378,159.322 300.094 C 158.297 299.809,157.193 299.443,156.869 299.280 C 156.545 299.117,155.980 298.983,155.614 298.983 C 155.247 298.983,154.597 298.841,154.168 298.667 C 153.740 298.493,152.475 298.091,151.356 297.773 C 147.291 296.616,145.926 296.168,145.610 295.883 C 145.433 295.724,145.011 295.593,144.673 295.593 C 144.335 295.593,143.794 295.461,143.470 295.300 C 142.307 294.720,140.487 294.150,139.322 294.000 L 138.136 293.848 140.339 296.028 M323.292 297.203 C 325.763 302.964,325.483 317.119,322.898 317.119 C 322.291 317.119,322.235 316.819,322.157 313.121 C 322.077 309.398,321.382 305.017,320.653 303.649 C 320.480 303.325,320.339 302.686,320.339 302.228 C 320.339 301.770,320.186 301.302,320.000 301.186 C 319.328 300.771,319.671 298.922,320.694 297.434 C 321.957 295.599,322.580 295.544,323.292 297.203 M156.599 308.341 C 158.988 309.187,159.378 309.341,161.146 310.137 L 162.801 310.882 162.577 312.792 C 162.453 313.842,162.189 314.898,161.990 315.138 C 161.787 315.382,161.610 317.196,161.588 319.240 C 161.545 323.286,161.833 324.256,163.944 327.164 C 165.477 329.276,165.326 330.372,163.612 329.568 C 159.538 327.656,158.772 327.151,156.951 325.174 C 154.742 322.778,153.371 320.402,152.828 318.030 C 152.275 315.619,152.099 312.192,152.487 311.392 C 152.677 310.999,152.925 310.117,153.037 309.431 C 153.325 307.675,154.073 307.446,156.599 308.341 "
            stroke="none" fill="#3d65b4" fill-rule="evenodd"></path>
    </g>
</svg>